<svg width="401" height="425" viewBox="0 0 401 425" fill="none" xmlns="http://www.w3.org/2000/svg">
<path d="M86.0832 140.952C91.0933 161.226 133.452 291.559 119.788 300.248C113.411 299.765 86.9941 288.18 74.6966 289.145C53.7452 288.663 29.1502 368.311 53.2898 384.723C56.9335 387.136 68.3201 387.136 77.8849 384.24C79.2513 383.757 79.6484 384.965 80.7546 381.646C81.8608 380.54 80.6177 380.861 80.6177 378.93C79.7067 364.449 84.2614 344.658 93.3707 339.348C108.856 330.659 131.63 367.828 146.205 361.07C163.057 353.346 154.403 294.455 148.026 252.459C141.194 207.084 132.085 170.398 125.709 146.745C130.719 140.469 204.048 123.092 262.803 105.714C260.071 223.979 242.263 370.584 254.431 366.159C266.273 360.849 359.362 319.074 343.876 307.971C328.846 297.352 300.151 305.558 294.23 307.489C265.992 289.628 325.657 25.1005 271.002 51.6498C244.129 57.9251 77.8849 114.885 86.0832 140.952Z" fill="#FFEFDE" stroke="black" stroke-width="4" stroke-miterlimit="10"/>
<path d="M233.63 138.326C244.032 136.37 249.01 114.144 244.747 88.6823C240.484 63.2208 228.596 44.1658 218.194 46.122C207.791 48.0781 202.814 70.3045 207.077 95.766C211.34 121.228 223.228 140.283 233.63 138.326Z" fill="#FFEFDE" stroke="black" stroke-width="4" stroke-miterlimit="10"/>
<path d="M233.626 102.925C238.027 101.798 240.158 94.5823 238.386 86.8084C236.614 79.0345 231.61 73.6459 227.209 74.7726C222.808 75.8993 220.677 83.1148 222.448 90.8887C224.22 98.6626 229.225 104.051 233.626 102.925Z" fill="black" stroke="black" stroke-width="7.24072" stroke-miterlimit="10"/>
<path d="M235.554 97.145C238.44 96.2058 239.701 91.7258 238.372 87.1387C237.042 82.5516 233.626 79.5944 230.74 80.5337C227.855 81.4729 226.593 85.953 227.923 90.5401C229.252 95.1272 232.669 98.0843 235.554 97.145Z" fill="#FFEFDE"/>
<path d="M173.499 144.052C183.901 142.096 188.878 119.87 184.615 94.4081C180.353 68.9466 168.464 49.8917 158.062 51.8478C147.66 53.8039 142.683 76.0303 146.945 101.492C151.208 126.953 163.096 146.008 173.499 144.052Z" fill="#FFEFDE" stroke="black" stroke-width="4" stroke-miterlimit="10"/>
<path d="M173.144 115.001C177.545 113.875 179.677 106.659 177.905 98.8853C176.133 91.1114 171.129 85.7228 166.728 86.8495C162.327 87.9762 160.195 95.1917 161.967 102.966C163.739 110.74 168.743 116.128 173.144 115.001Z" fill="black" stroke="black" stroke-width="7.24072" stroke-miterlimit="10"/>
<path d="M175.099 109.227C177.984 108.288 179.246 103.808 177.917 99.2207C176.587 94.6336 173.17 91.6764 170.285 92.6157C167.4 93.555 166.138 98.035 167.467 102.622C168.797 107.209 172.214 110.166 175.099 109.227Z" fill="#FFEFDE"/>
<path d="M204.959 36.6861C204.048 36.2034 208.603 24.6182 218.168 22.2047C225.91 20.7565 233.198 26.5491 232.742 27.0318C232.742 27.9972 227.277 24.6182 220.445 26.0664C210.88 27.9972 205.87 37.1688 204.959 36.6861Z" fill="black" stroke="black" stroke-width="5" stroke-miterlimit="10"/>
<path d="M137.55 47.7882C136.639 47.3055 140.283 35.2376 149.392 32.3413C157.135 29.9278 164.878 35.2376 164.423 36.203C164.423 37.1685 158.957 34.2722 152.125 36.203C142.56 39.0993 138.461 48.7536 137.55 47.7882Z" fill="black" stroke="black" stroke-width="5" stroke-miterlimit="10"/>
<path d="M234.109 151.09C235.475 152.538 224.999 173.778 206.781 175.708C191.751 177.157 178.998 165.089 179.453 163.158C179.908 161.71 189.473 168.468 202.682 167.502C221.811 165.571 232.742 149.642 234.109 151.09Z" fill="#FFEFDE" stroke="black" stroke-width="4" stroke-miterlimit="10"/>
</svg>
