<svg width="262" height="313" viewBox="0 0 262 313" fill="none" xmlns="http://www.w3.org/2000/svg">
<g clip-path="url(#clip0_116_779)">
<path d="M43.1536 100.952C47.7083 117.445 81.8691 223.645 70.8617 231.288C68.2048 231.288 61.7522 228.875 54.1609 226.461C42.3945 222.841 36.701 221.634 34.044 222.036C13.5476 224.852 -2.39407 291.227 13.168 302.491C17.3432 305.709 26.8323 307.318 33.2849 302.491C35.1827 301.284 36.701 299.273 37.4601 298.066C37.4601 296.054 37.0806 293.238 37.4601 289.618C38.2192 280.768 42.0149 267.895 49.2266 262.666C59.0953 255.827 78.453 261.459 92.4969 280.366C119.446 258.643 75.4165 123.479 75.7961 105.377C79.9713 100.148 139.942 86.068 187.767 71.9885C185.49 168.534 175.621 283.986 181.694 284.791C191.183 280.366 267.096 246.173 254.191 236.92C242.045 228.07 218.512 234.909 213.957 236.518C191.183 222.036 239.768 6.01575 194.979 27.7385C172.205 33.3703 36.701 80.0339 43.1536 100.952Z" fill="black" stroke="black" stroke-width="12.0682" stroke-miterlimit="10"/>
<path d="M39.7374 102.963C43.9127 119.859 79.2121 228.472 67.8252 235.713C62.5113 235.311 40.4966 225.656 30.2484 226.461C12.7884 226.059 -7.70802 292.434 12.4089 306.111C15.4454 308.122 24.9345 308.122 32.9053 305.709C34.044 305.306 34.3749 306.312 35.2968 303.547C36.2187 302.625 35.1827 302.893 35.1827 301.284C34.4236 289.215 38.2192 272.722 45.8105 268.297C58.7156 261.056 77.6938 292.031 89.8399 286.399C103.884 279.963 96.672 230.886 91.3581 195.888C85.6647 158.074 78.0734 127.502 72.7595 107.79C76.9347 102.561 138.044 88.079 187.008 73.5972C184.731 172.154 169.891 294.328 180.031 290.64C189.9 286.215 267.476 251.402 254.571 242.149C242.045 233.299 218.132 240.138 213.198 241.747C189.665 226.863 239.388 6.41761 193.84 28.5426C171.446 33.7722 32.9053 81.2404 39.7374 102.963Z" fill="#0F790F" stroke="black" stroke-width="6.03409" stroke-miterlimit="10"/>
<path d="M258.366 242.552C257.987 244.161 257.607 245.368 256.848 246.977" stroke="black" stroke-width="1.50852" stroke-miterlimit="10"/>
<path d="M162.697 100.776C171.366 99.1455 175.513 80.623 171.961 59.4045C168.409 38.1859 158.502 22.3064 149.833 23.9365C141.164 25.5667 137.016 44.0892 140.569 65.3077C144.121 86.5263 154.028 102.406 162.697 100.776Z" fill="#FFEFDE" stroke="black" stroke-width="6.03409" stroke-miterlimit="10"/>
<path d="M162.693 71.2726C166.361 70.3336 168.137 64.3206 166.66 57.8421C165.184 51.3637 161.014 46.8731 157.346 47.812C153.678 48.751 151.902 54.764 153.379 61.2425C154.855 67.7209 159.026 72.2116 162.693 71.2726Z" fill="black" stroke="black" stroke-width="6.03409" stroke-miterlimit="10"/>
<path d="M164.301 66.4566C166.705 65.6739 167.756 61.9405 166.649 58.1178C165.541 54.2951 162.693 51.8307 160.289 52.6135C157.884 53.3962 156.833 57.1297 157.941 60.9523C159.049 64.775 161.896 67.2394 164.301 66.4566Z" fill="#FBEBC1"/>
<path d="M112.586 105.547C121.255 103.917 125.402 85.3945 121.85 64.1759C118.298 42.9574 108.391 27.0779 99.7218 28.708C91.0531 30.3382 86.9054 48.8607 90.4577 70.0792C94.01 91.2977 103.917 107.177 112.586 105.547Z" fill="#FFEFDE" stroke="black" stroke-width="6.03409" stroke-miterlimit="10"/>
<path d="M112.291 81.337C115.959 80.3981 117.735 74.3851 116.258 67.9066C114.781 61.4282 110.611 56.9375 106.944 57.8765C103.276 58.8155 101.5 64.8285 102.976 71.3069C104.453 77.7854 108.623 82.276 112.291 81.337Z" fill="black" stroke="black" stroke-width="6.03409" stroke-miterlimit="10"/>
<path d="M113.92 76.5252C116.324 75.7425 117.376 72.0091 116.268 68.1864C115.16 64.3637 112.312 61.8993 109.908 62.6821C107.503 63.4648 106.452 67.1983 107.56 71.0209C108.668 74.8436 111.515 77.308 113.92 76.5252Z" fill="#FBEBC1"/>
<path d="M138.804 16.0728C138.045 15.6706 141.84 6.01603 149.811 4.00466C156.264 2.79784 162.337 7.62512 161.957 8.02739C161.957 8.83194 157.402 6.01603 151.709 7.22285C143.738 8.83194 139.563 16.4751 138.804 16.0728Z" fill="black" stroke="black" stroke-width="6.03409" stroke-miterlimit="10"/>
<path d="M82.6284 25.3248C81.8693 24.9226 84.9058 14.8657 92.497 12.4521C98.9496 10.4407 105.402 14.8657 105.023 15.6703C105.023 16.4748 100.468 14.0612 94.7744 15.6703C86.8036 18.0839 83.3875 26.1294 82.6284 25.3248Z" fill="black" stroke="black" stroke-width="6.03409" stroke-miterlimit="10"/>
<path d="M163.096 111.412C164.235 112.618 155.505 130.318 140.322 131.928C127.796 133.134 117.169 123.078 117.548 121.468C117.928 120.262 125.899 125.893 136.906 125.089C152.848 123.48 161.957 110.205 163.096 111.412Z" fill="#FFEFDE" stroke="black" stroke-width="6.03409" stroke-miterlimit="10"/>
</g>
<defs>
<clipPath id="clip0_116_779">
<rect width="262" height="312" fill="white" transform="translate(0 0.5)"/>
</clipPath>
</defs>
</svg>
